<svg width="65" height="86" viewBox="0 0 65 86" fill="none" xmlns="http://www.w3.org/2000/svg">
<path d="M1.09315 51.3689L1.10372 51.3589L1.1137 51.3483C1.49246 50.9469 1.94339 50.7533 2.49833 50.7552L2.50171 50.7552C3.05742 50.7533 3.53127 50.9478 3.94739 51.3597C3.94764 51.3599 3.9479 51.3602 3.94816 51.3604L29.6465 77.0587L30.5 77.9123L30.5 76.7052L30.5 2.7552L30.5 2.7535C30.4981 2.19857 30.6917 1.74765 31.0931 1.36888L31.1037 1.3589L31.1137 1.34833C31.4924 0.946879 31.9434 0.753322 32.4983 0.755206L32.5017 0.755198C33.0571 0.753314 33.5307 0.947612 33.9466 1.35895C34.3174 1.73448 34.502 2.18834 34.5 2.75341L34.5 2.7552L34.5 76.7052L34.5 77.9106L35.3532 77.0591L61.1032 51.3591L61.1085 51.3538L61.1137 51.3483C61.4924 50.9469 61.9433 50.7533 62.4983 50.7552L62.5017 50.7552C63.0569 50.7533 63.5304 50.9475 63.9463 51.3586C64.3173 51.7342 64.502 52.1882 64.5 52.7534L64.5 52.757C64.502 53.3206 64.3179 53.7964 63.9392 54.2088L33.9536 84.1944C33.5412 84.5731 33.0654 84.7572 32.5018 84.7552L32.4982 84.7552C31.9326 84.7572 31.4784 84.5722 31.1026 84.2007C31.1023 84.2004 31.102 84.2001 31.1017 84.1998L1.10526 54.2033C1.10494 54.203 1.10463 54.2027 1.10431 54.2024C0.692609 53.7863 0.498136 53.3125 0.500028 52.7569L0.50002 52.7535C0.498143 52.1986 0.691701 51.7476 1.09315 51.3689Z" fill="#141414" stroke="white"/>
</svg>
