<svg width="23" height="40" viewBox="0 0 23 40" fill="none" xmlns="http://www.w3.org/2000/svg">
<path d="M21.0684 21.736C20.4811 22.3125 19.5205 22.3125 18.9338 21.736L0.440432 3.58258C-0.146811 3.00609 -0.146811 2.06305 0.440432 1.48705L1.51427 0.43237C2.10152 -0.144123 3.06214 -0.144123 3.64938 0.43237L22.1427 18.5857C22.7295 19.1622 22.73 20.1048 22.1427 20.6813L21.0684 21.736Z" fill="#141414"/>
<path d="M0.441042 37.7809C-0.1462 37.2044 -0.1462 36.2614 0.441042 35.6854L18.9329 17.531C19.5201 16.9545 20.4808 16.9545 21.0675 17.531L22.1418 18.5857C22.7286 19.1622 22.7291 20.1052 22.1418 20.6812L3.64949 38.8356C3.06225 39.4116 2.10163 39.4121 1.51489 38.8356L0.441042 37.7809Z" fill="#141414"/>
</svg>
