<svg width="23" height="40" viewBox="0 0 23 40" fill="none" xmlns="http://www.w3.org/2000/svg">
<path d="M1.51459 17.5317C2.10184 16.9552 3.06245 16.9552 3.64919 17.5317L22.1426 35.6851C22.7298 36.2616 22.7298 37.2046 22.1426 37.7806L21.0687 38.8353C20.4815 39.4118 19.5208 39.4118 18.9336 38.8353L0.440245 20.682C-0.146496 20.1055 -0.146997 19.1629 0.440245 18.5864L1.51459 17.5317Z" fill="#141414"/>
<path d="M22.142 1.4868C22.7292 2.0633 22.7292 3.00634 22.142 3.58234L3.65013 21.7367C3.06289 22.3132 2.10227 22.3132 1.51553 21.7367L0.441179 20.682C-0.145559 20.1055 -0.146063 19.1625 0.441179 18.5865L18.9335 0.432122C19.5208 -0.143877 20.4814 -0.144371 21.0681 0.432121L22.142 1.4868Z" fill="#141414"/>
</svg>
