<svg width="46" height="46" viewBox="0 0 46 46" fill="none" xmlns="http://www.w3.org/2000/svg">
<circle cx="23" cy="23" r="23" fill="#9D93EB"/>
<path d="M17 18H26V16C26 15.1667 25.7083 14.4583 25.125 13.875C24.5417 13.2917 23.8333 13 23 13C22.1667 13 21.4583 13.2917 20.875 13.875C20.2917 14.4583 20 15.1667 20 16H18C18 14.6167 18.4877 13.4377 19.463 12.463C20.4383 11.4883 21.6173 11.0007 23 11C24.3827 10.9993 25.562 11.487 26.538 12.463C27.514 13.439 28.0013 14.618 28 16V18H29C29.55 18 30.021 18.196 30.413 18.588C30.805 18.98 31.0007 19.4507 31 20V30C31 30.55 30.8043 31.021 30.413 31.413C30.0217 31.805 29.5507 32.0007 29 32H17C16.45 32 15.9793 31.8043 15.588 31.413C15.1967 31.0217 15.0007 30.5507 15 30V20C15 19.45 15.196 18.9793 15.588 18.588C15.98 18.1967 16.4507 18.0007 17 18ZM17 30H29V20H17V30ZM23 27C23.55 27 24.021 26.8043 24.413 26.413C24.805 26.0217 25.0007 25.5507 25 25C24.9993 24.4493 24.8037 23.9787 24.413 23.588C24.0223 23.1973 23.5513 23.0013 23 23C22.4487 22.9987 21.978 23.1947 21.588 23.588C21.198 23.9813 21.002 24.452 21 25C20.998 25.548 21.194 26.019 21.588 26.413C21.982 26.807 22.4527 27.0027 23 27Z" fill="#141414"/>
</svg>
