<svg width="46" height="46" viewBox="0 0 46 46" fill="none" xmlns="http://www.w3.org/2000/svg">
<circle cx="23" cy="23" r="23" fill="#9D93EB"/>
<path d="M17.62 21.79C19.06 24.62 21.38 26.93 24.21 28.38L26.41 26.18C26.68 25.91 27.08 25.82 27.43 25.94C28.55 26.31 29.76 26.51 31 26.51C31.55 26.51 32 26.96 32 27.51V31C32 31.55 31.55 32 31 32C21.61 32 14 24.39 14 15C14 14.45 14.45 14 15 14H18.5C19.05 14 19.5 14.45 19.5 15C19.5 16.25 19.7 17.45 20.07 18.57C20.18 18.92 20.1 19.31 19.82 19.59L17.62 21.79Z" fill="#141414"/>
</svg>
