<svg width="46" height="46" viewBox="0 0 46 46" fill="none" xmlns="http://www.w3.org/2000/svg">
<circle cx="23" cy="23" r="23" fill="#9D93EB"/>
<path d="M17.8285 22.2789L18.0687 22.7174C18.0007 22.7547 17.9827 22.8326 18.0142 22.8897C18.0381 22.9314 18.0854 22.9595 18.1386 22.9595C18.16 22.9595 18.1855 22.9542 18.2119 22.9404C18.5913 22.7328 18.8375 22.3565 18.8759 21.9314C18.9127 21.5079 18.7355 21.0939 18.396 20.8239C14.9454 18.0827 11.4796 19.5503 9.63919 20.7377C9.2671 20.9787 9.04877 21.3784 9.04758 21.8097C9.04639 22.2416 9.26449 22.6436 9.63814 22.8859C9.70454 22.9289 9.79544 22.9097 9.83861 22.847C9.87501 22.7919 9.86305 22.7153 9.79882 22.6735L10.0713 22.2543M17.8285 22.2789L18.0661 22.7189C18.5037 22.4826 18.5843 22.0667 18.597 21.9071C18.6088 21.7588 18.6067 21.3328 18.2143 21.0214L18.2143 21.0214C17.4612 20.424 16.6996 20.0315 15.9442 19.7975L14.3729 19.3108L15.4076 20.5896C15.6579 20.899 15.8064 21.286 15.8064 21.7083C15.8064 22.6985 14.9878 23.5154 13.9608 23.5154C12.9337 23.5154 12.1151 22.6985 12.1151 21.7083C12.1151 21.329 12.2332 20.9795 12.4362 20.6903L13.3241 19.425L11.8633 19.9305C11.0979 20.1955 10.4001 20.5628 9.79888 20.9502L9.79845 20.9505C9.37304 21.2252 9.32795 21.6493 9.32795 21.81C9.32795 21.9692 9.37221 22.397 9.79936 22.6739L10.0713 22.2543M17.8285 22.2789C17.5201 22.4478 17.4084 22.8315 17.5785 23.1349C17.6952 23.3415 17.9135 23.4595 18.1386 23.4595C18.2436 23.4595 18.3503 23.4333 18.4487 23.3808L17.8285 22.2789ZM10.0713 22.2543C9.85129 22.1117 9.82795 21.8952 9.82795 21.81C9.82795 21.7247 9.85129 21.5115 10.0697 21.3705M10.0713 22.2543C10.3664 22.4462 10.4481 22.8364 10.2531 23.1267C10.0564 23.4169 9.65958 23.4956 9.36616 23.3054C8.85267 22.9725 8.54592 22.4134 8.54758 21.8083C8.54925 21.2049 8.85602 20.649 9.36782 20.3178C11.2636 19.0945 14.9962 17.4843 18.7072 20.4326L10.0697 21.3705M10.0697 21.3705C10.4476 21.127 10.8629 20.8934 11.3077 20.6911L10.0697 21.3705Z" fill="#141414" stroke="#141414"/>
<path d="M28.1258 20.7378L28.1256 20.7379C27.7522 20.9788 27.5343 21.3795 27.5343 21.8083V21.8097H27.5343C27.5331 22.2416 27.7512 22.6436 28.1249 22.8859L27.8529 23.3054M28.1258 20.7378L36.5554 22.7175C36.9919 22.4786 37.0681 22.065 37.0829 21.9169L37.083 21.917L37.0838 21.9071C37.0956 21.7589 37.0934 21.333 36.7014 21.0217C35.9519 20.4261 35.1937 20.0334 34.4396 19.7993L32.8738 19.3131L33.9019 20.5903C34.1509 20.8997 34.2982 21.2855 34.2982 21.7067C34.2982 22.6969 33.4796 23.5138 32.4525 23.5138C31.4254 23.5138 30.6069 22.6969 30.6069 21.7067C30.6069 21.3287 30.7258 20.9786 30.9302 20.6861L31.8133 19.4222L30.3565 19.9274C29.5882 20.1938 28.8888 20.5609 28.2853 20.9504L28.2852 20.9505C27.8598 21.2252 27.8147 21.6493 27.8147 21.81C27.8147 21.9692 27.8589 22.397 28.2861 22.6739L28.5581 22.2543L28.2855 22.6735C28.3501 22.7155 28.3619 22.7927 28.3248 22.8478L28.3248 22.8478C28.2845 22.9078 28.1941 22.9305 28.1238 22.8852L27.8529 23.3054M28.1258 20.7378C29.9439 19.5636 33.3539 18.115 36.7666 20.7346L36.881 20.8255M28.1258 20.7378L36.881 20.8255M27.8529 23.3054C27.3394 22.9725 27.0326 22.4134 27.0343 21.8083L28.7398 23.1267C28.5447 23.4169 28.148 23.4956 27.8529 23.3054ZM36.881 20.8255C37.2209 21.0958 37.3979 21.5085 37.361 21.9337C37.3241 22.3561 37.0786 22.7325 36.6987 22.9405C36.6722 22.9543 36.6468 22.9596 36.6254 22.9596C36.5722 22.9596 36.5249 22.9314 36.501 22.8897M36.881 20.8255L36.501 22.8897M36.501 22.8897C36.4695 22.8327 36.4874 22.7548 36.5553 22.7175L36.501 22.8897Z" fill="#141414" stroke="#141414"/>
<path d="M37.2794 16.9057L37.2798 16.9059C37.3021 16.9205 37.3279 16.9283 37.3588 16.9283C37.4078 16.9283 37.4537 16.904 37.4795 16.8666C37.516 16.8113 37.5039 16.7348 37.4399 16.6932L37.7124 16.274M37.2794 16.9057L27.6215 16.9041C27.5506 16.9495 27.4608 16.9273 27.4194 16.8658C27.3827 16.8111 27.3937 16.7354 27.4587 16.6932L27.1862 16.274L27.4581 16.6936C27.5387 16.6413 28.8103 15.8319 30.6803 15.4446C32.5409 15.0592 34.9761 15.0936 37.4402 16.6933L37.7124 16.274M37.2794 16.9057C34.8987 15.3593 32.5237 15.3294 30.7361 15.6977M37.2794 16.9057L30.7361 15.6977M37.7124 16.274C38.0075 16.4658 38.089 16.8561 37.894 17.1463L37.7124 16.274ZM30.7361 15.6977C28.9575 16.0643 27.7413 16.8273 27.6215 16.9041L30.7361 15.6977Z" fill="#141414" stroke="#141414"/>
<path d="M19.809 28.1804L20.2442 28.4266C20.9228 27.2267 21.5767 25.6715 21.9495 24.0475C22.3209 22.4291 22.4231 20.6983 21.9485 19.1737L21.9485 19.1736C21.4779 17.6625 20.4874 16.521 19.0317 15.7953L19.0317 15.7953C16.0181 14.2932 12.5025 14.5589 9.85683 16.5041L9.85682 16.5041L9.85431 16.5059C9.79266 16.5519 9.7018 16.5386 9.65591 16.4782L9.65591 16.4782L9.65505 16.4771C9.61417 16.4236 9.62293 16.3465 9.68217 16.303L9.68233 16.3029C12.4071 14.299 16.0389 14.0098 19.1643 15.5686L19.1645 15.5687C20.7087 16.3381 21.726 17.5229 22.2193 19.1036C23.1387 22.0564 22.0091 25.8224 20.5541 28.4426L20.4062 28.7089L20.575 28.9624C20.6866 29.1301 20.8869 29.3122 21.1339 29.4718C21.3913 29.6381 21.7294 29.7997 22.1423 29.9072C22.7682 30.07 24.0371 30.2089 25.1469 29.1819L25.1726 29.1581C25.228 29.1292 25.3019 29.1381 25.3472 29.1847C25.3959 29.2365 25.3933 29.3146 25.3409 29.3631C24.6164 30.034 23.8035 30.2745 23.0382 30.2745C22.1119 30.2745 21.2641 29.9208 20.775 29.5463C20.4103 29.2668 20.2625 29.0152 20.2107 28.8361C20.1598 28.6602 20.1906 28.5216 20.2446 28.4259L19.809 28.1804ZM19.809 28.1804C19.5706 28.6035 19.6172 29.2889 20.4708 29.9432L10.153 16.9069C12.642 15.0769 15.9564 14.8211 18.8087 16.2428C20.1474 16.9102 21.0426 17.9465 21.4711 19.3223C22.348 22.1394 21.1243 25.8549 19.809 28.1804Z" fill="#141414" stroke="#141414"/>
</svg>
