<svg width="30" height="30" viewBox="0 0 30 30" fill="none" xmlns="http://www.w3.org/2000/svg">
<path fill-rule="evenodd" clip-rule="evenodd" d="M6.71917 0.879635C12.2229 0.269939 17.7771 0.269939 23.2808 0.879635C26.2876 1.2153 28.7117 3.58239 29.0648 6.60022C29.717 12.1809 29.717 17.8187 29.0648 23.3994C28.7117 26.4172 26.2876 28.7843 23.2824 29.1215C17.7782 29.7314 12.2234 29.7314 6.71917 29.1215C3.71242 28.7843 1.28834 26.4172 0.935255 23.401C0.282893 17.8197 0.282893 12.1815 0.935255 6.60022C1.28834 3.58239 3.71242 1.2153 6.71917 0.879635ZM22.9167 5.4998C22.4967 5.4998 22.094 5.66662 21.7971 5.96355C21.5002 6.26048 21.3333 6.66321 21.3333 7.08313C21.3333 7.50306 21.5002 7.90579 21.7971 8.20272C22.094 8.49965 22.4967 8.66647 22.9167 8.66647C23.3366 8.66647 23.7393 8.49965 24.0363 8.20272C24.3332 7.90579 24.5 7.50306 24.5 7.08313C24.5 6.66321 24.3332 6.26048 24.0363 5.96355C23.7393 5.66662 23.3366 5.4998 22.9167 5.4998ZM7.47917 14.9998C7.47917 13.0052 8.27154 11.0922 9.68197 9.68177C11.0924 8.27134 13.0054 7.47897 15 7.47897C16.9947 7.47897 18.9076 8.27134 20.318 9.68177C21.7285 11.0922 22.5208 13.0052 22.5208 14.9998C22.5208 16.9944 21.7285 18.9074 20.318 20.3178C18.9076 21.7283 16.9947 22.5206 15 22.5206C13.0054 22.5206 11.0924 21.7283 9.68197 20.3178C8.27154 18.9074 7.47917 16.9944 7.47917 14.9998Z" fill="white"/>
</svg>
