<svg width="121" height="54" viewBox="0 0 121 54" fill="none" xmlns="http://www.w3.org/2000/svg">
<path d="M31.3364 26.3447C29.6472 26.3447 28.3431 25.8352 27.424 24.8162C26.5297 23.7971 26.0826 22.3535 26.0826 20.4853V0.395969H28.3555V20.2306C28.3555 21.1525 28.4797 21.9289 28.7281 22.5598C29.0014 23.1663 29.3864 23.6273 29.8832 23.9427C30.38 24.2581 30.9886 24.4158 31.709 24.4158C32.0319 24.4158 32.33 24.4037 32.6033 24.3794C32.9013 24.3309 33.1746 24.2703 33.423 24.1975L33.3485 26.1263C32.9759 26.1991 32.6281 26.2477 32.3052 26.2719C31.9822 26.3204 31.6593 26.3447 31.3364 26.3447Z" fill="white"/>
<path d="M43.7873 26.3447C42.5702 26.3447 41.4772 26.1142 40.5084 25.6532C39.5644 25.1922 38.8068 24.5614 38.2355 23.7608C37.689 22.9601 37.4157 22.0624 37.4157 21.0676C37.4157 19.7574 37.7511 18.7263 38.4218 17.9741C39.0925 17.222 40.2227 16.7004 41.8125 16.4092C43.4023 16.0938 45.5883 15.9361 48.3704 15.9361H49.9726V17.5738H48.4077C46.7434 17.5738 45.3399 17.6223 44.1972 17.7194C43.0794 17.8164 42.1975 17.9984 41.5517 18.2653C40.9058 18.5079 40.4463 18.8476 40.173 19.2843C39.9246 19.721 39.8004 20.2548 39.8004 20.8856C39.8004 21.9775 40.1855 22.863 40.9555 23.5424C41.7256 24.2217 42.7689 24.5614 44.0854 24.5614C45.1536 24.5614 46.0851 24.3188 46.88 23.8335C47.6997 23.324 48.3456 22.6325 48.8176 21.7591C49.2895 20.8856 49.5255 19.8909 49.5255 18.7748V14.6259C49.5255 13.0003 49.1902 11.8236 48.5195 11.0957C47.8488 10.3436 46.7806 9.96752 45.315 9.96752C44.2221 9.96752 43.1663 10.1252 42.1479 10.4406C41.1542 10.7561 40.1234 11.2534 39.0552 11.9328L38.1609 10.2223C38.8068 9.78556 39.5148 9.40949 40.2848 9.09407C41.0797 8.77866 41.8995 8.53604 42.744 8.3662C43.6135 8.1721 44.458 8.07505 45.2778 8.07505C46.7434 8.07505 47.9481 8.31768 48.8921 8.80292C49.8609 9.28817 50.5688 10.016 51.016 10.9865C51.4879 11.957 51.7239 13.2066 51.7239 14.7351V26.0536H49.5628V21.7955H49.9354C49.7118 22.7417 49.3144 23.5545 48.743 24.2339C48.1717 24.9132 47.4637 25.4349 46.6192 25.7988C45.7746 26.1627 44.8306 26.3447 43.7873 26.3447Z" fill="white"/>
<path d="M65.0432 26.3447C64.1489 26.3447 63.2671 26.2598 62.3977 26.09C61.5531 25.9201 60.7582 25.6654 60.013 25.3257C59.2926 24.986 58.6716 24.5735 58.1499 24.0883L58.9697 22.4506C59.5907 22.9358 60.2366 23.3362 60.9072 23.6516C61.5779 23.9427 62.2611 24.1611 62.9566 24.3067C63.677 24.4522 64.3974 24.525 65.1177 24.525C66.633 24.525 67.7881 24.246 68.583 23.688C69.3779 23.1299 69.7753 22.3778 69.7753 21.4316C69.7753 20.6552 69.5145 20.0607 68.9929 19.6483C68.496 19.2115 67.6763 18.8597 66.5336 18.5928L63.292 17.865C61.727 17.5253 60.5719 16.9794 59.8267 16.2272C59.0815 15.4508 58.7089 14.4561 58.7089 13.243C58.7089 12.1997 58.9821 11.2898 59.5286 10.5134C60.0999 9.73703 60.8948 9.1426 61.9133 8.73014C62.9566 8.29341 64.1489 8.07505 65.4903 8.07505C66.3101 8.07505 67.105 8.1721 67.875 8.3662C68.6451 8.53604 69.3531 8.79079 69.9989 9.13047C70.6448 9.47014 71.2037 9.89474 71.6756 10.4043L70.7814 12.042C70.3094 11.581 69.7753 11.1928 69.1792 10.8774C68.6078 10.562 68.0117 10.3315 67.3906 10.1859C66.7696 10.016 66.1238 9.93113 65.4531 9.93113C64.0123 9.93113 62.8945 10.2223 62.0996 10.8046C61.3295 11.3869 60.9445 12.1754 60.9445 13.1702C60.9445 13.9223 61.1805 14.5289 61.6525 14.9899C62.1493 15.4508 62.9193 15.8027 63.9626 16.0453L67.2043 16.7732C68.819 17.1371 70.0237 17.683 70.8186 18.4109C71.6135 19.1145 72.011 20.0729 72.011 21.286C72.011 22.3293 71.7253 23.2391 71.154 24.0155C70.5827 24.7676 69.7753 25.3499 68.732 25.7624C67.6887 26.1506 66.4591 26.3447 65.0432 26.3447Z" fill="white"/>
<path d="M84.3272 26.3447C83.4329 26.3447 82.5511 26.2598 81.6816 26.09C80.8371 25.9201 80.0422 25.6654 79.2969 25.3257C78.5766 24.986 77.9556 24.5735 77.4339 24.0883L78.2536 22.4506C78.8747 22.9358 79.5205 23.3362 80.1912 23.6516C80.8619 23.9427 81.545 24.1611 82.2406 24.3067C82.9609 24.4522 83.6813 24.525 84.4017 24.525C85.917 24.525 87.072 24.246 87.8669 23.688C88.6618 23.1299 89.0593 22.3778 89.0593 21.4316C89.0593 20.6552 88.7985 20.0607 88.2768 19.6483C87.78 19.2115 86.9603 18.8597 85.8176 18.5928L82.5759 17.865C81.0109 17.5253 79.8559 16.9794 79.1106 16.2272C78.3654 15.4508 77.9928 14.4561 77.9928 13.243C77.9928 12.1997 78.2661 11.2898 78.8126 10.5134C79.3839 9.73703 80.1788 9.1426 81.1973 8.73014C82.2406 8.29341 83.4329 8.07505 84.7743 8.07505C85.594 8.07505 86.3889 8.1721 87.159 8.3662C87.929 8.53604 88.637 8.79079 89.2829 9.13047C89.9287 9.47014 90.4876 9.89474 90.9596 10.4043L90.0653 12.042C89.5934 11.581 89.0593 11.1928 88.4631 10.8774C87.8918 10.562 87.2956 10.3315 86.6746 10.1859C86.0536 10.016 85.4077 9.93113 84.737 9.93113C83.2963 9.93113 82.1785 10.2223 81.3836 10.8046C80.6135 11.3869 80.2285 12.1754 80.2285 13.1702C80.2285 13.9223 80.4645 14.5289 80.9364 14.9899C81.4332 15.4508 82.2033 15.8027 83.2466 16.0453L86.4883 16.7732C88.1029 17.1371 89.3077 17.683 90.1026 18.4109C90.8975 19.1145 91.2949 20.0729 91.2949 21.286C91.2949 22.3293 91.0093 23.2391 90.4379 24.0155C89.8666 24.7676 89.0593 25.3499 88.016 25.7624C86.9727 26.1506 85.7431 26.3447 84.3272 26.3447Z" fill="white"/>
<path d="M97.3513 3.74419V0.941875H100.407V3.74419H97.3513ZM97.7239 26.0536V8.40259H99.9968V26.0536H97.7239Z" fill="white"/>
<path d="M113.063 26.3447C111.846 26.3447 110.753 26.1142 109.784 25.6532C108.841 25.1922 108.083 24.5614 107.512 23.7608C106.965 22.9601 106.692 22.0624 106.692 21.0676C106.692 19.7574 107.027 18.7263 107.698 17.9741C108.369 17.222 109.499 16.7004 111.089 16.4092C112.678 16.0938 114.864 15.9361 117.647 15.9361H119.249V17.5738H117.684C116.019 17.5738 114.616 17.6223 113.473 17.7194C112.355 17.8164 111.474 17.9984 110.828 18.2653C110.182 18.5079 109.722 18.8476 109.449 19.2843C109.201 19.721 109.077 20.2548 109.077 20.8856C109.077 21.9775 109.462 22.863 110.232 23.5424C111.002 24.2217 112.045 24.5614 113.362 24.5614C114.43 24.5614 115.361 24.3188 116.156 23.8335C116.976 23.324 117.622 22.6325 118.094 21.7591C118.566 20.8856 118.802 19.8909 118.802 18.7748V14.6259C118.802 13.0003 118.466 11.8236 117.796 11.0957C117.125 10.3436 116.057 9.96752 114.591 9.96752C113.498 9.96752 112.442 10.1252 111.424 10.4406C110.43 10.7561 109.399 11.2534 108.331 11.9328L107.437 10.2223C108.083 9.78556 108.791 9.40949 109.561 9.09407C110.356 8.77866 111.176 8.53604 112.02 8.3662C112.89 8.1721 113.734 8.07505 114.554 8.07505C116.019 8.07505 117.224 8.31768 118.168 8.80292C119.137 9.28817 119.845 10.016 120.292 10.9865C120.764 11.957 121 13.2066 121 14.7351V26.0536H118.839V21.7955H119.211C118.988 22.7417 118.59 23.5545 118.019 24.2339C117.448 24.9132 116.74 25.4349 115.895 25.7988C115.051 26.1627 114.107 26.3447 113.063 26.3447Z" fill="white"/>
<path d="M10.2459 29.5916C9.45508 29.5916 8.66742 29.6848 7.89898 29.8697C7.58359 29.3942 7.4171 28.9187 7.40269 28.4526C7.38668 27.9615 7.54037 27.4565 7.85735 26.95C8.64021 27.1411 9.44227 27.2374 10.2459 27.2374C15.8956 27.2374 20.4919 22.5602 20.4919 16.8093C20.4919 11.478 16.496 6.99655 11.325 6.44182V3.48944H9.17492V6.44182C4.00072 6.99034 0 11.4733 0 16.8093C0 20.865 2.29413 24.5197 5.88021 26.2414C5.48478 26.981 5.29747 27.744 5.32148 28.5132C5.3439 29.2124 5.54241 29.9023 5.91223 30.5705C2.30694 32.2875 0 35.9469 0 40.0197C0 45.3541 3.99912 49.8355 9.17171 50.3872V53.3489H11.3218V50.3872C16.4944 49.8355 20.4935 45.3526 20.4935 40.0197C20.4935 34.2703 15.8972 29.5916 10.2475 29.5916H10.2459ZM10.2459 25.2174C5.74413 25.2174 2.08121 21.4461 2.08121 16.8093C2.08121 12.1725 5.74413 8.40126 10.2459 8.40126C14.7477 8.40126 18.4107 12.1725 18.4107 16.8093C18.4107 21.4461 14.7477 25.2174 10.2459 25.2174ZM18.4107 40.0197C18.4107 44.6549 14.7477 48.4277 10.2459 48.4277C5.74413 48.4277 2.08121 44.6564 2.08121 40.0197C2.08121 35.3829 5.74413 31.6116 10.2459 31.6116C14.7477 31.6116 18.4107 35.3829 18.4107 40.0197Z" fill="white"/>
</svg>
