<svg width="890" height="585" viewBox="0 0 890 585" fill="none" xmlns="http://www.w3.org/2000/svg">
<rect width="872.185" height="510.281" rx="15" transform="matrix(0.996281 -0.0861672 0.0412695 0.999148 0 75.1538)" fill="#F3F3F3"/>
<rect x="1.5" y="30.4998" width="860" height="496" rx="14.5" fill="white" stroke="black"/>
<path fill-rule="evenodd" clip-rule="evenodd" d="M64.2066 84.2383C56.3629 89.2758 52.0052 95.1394 51.1337 101.829C49.7764 112.243 59.0889 117.339 63.8077 112.76C68.5264 108.181 65.6983 102.368 62.2816 100.778C58.865 99.1883 56.7754 99.7425 57.14 97.6185C57.5046 95.4946 62.365 89.6081 66.6358 86.8665C66.7869 86.7376 66.8833 86.5561 66.9054 86.3587C66.9274 86.1613 66.8735 85.963 66.7546 85.804L65.6983 84.43C65.24 83.8342 64.8004 83.8571 64.2066 84.2373M84.8587 84.2383C77.015 89.2758 72.6573 95.1394 71.7858 101.829C70.4275 112.243 79.74 117.339 84.4587 112.76C89.1775 108.181 86.3493 102.368 82.9316 100.778C79.5139 99.1883 77.4254 99.7425 77.79 97.6185C78.1545 95.4946 83.016 89.6081 87.2868 86.8665C87.4378 86.7375 87.534 86.5559 87.5559 86.3585C87.5777 86.1611 87.5236 85.9629 87.4045 85.804L86.3493 84.43C85.891 83.8342 85.4514 83.8571 84.8587 84.2373" fill="#9D93EB"/>
<path fill-rule="evenodd" clip-rule="evenodd" d="M774.924 475.948C796.73 461.943 808.844 445.643 811.267 427.046C815.04 398.096 789.151 383.927 776.033 396.657C762.915 409.387 770.777 425.549 780.276 429.968C789.774 434.387 795.583 432.846 794.57 438.751C793.556 444.655 780.044 461.02 768.171 468.642C767.751 469 767.483 469.504 767.422 470.053C767.36 470.602 767.51 471.153 767.841 471.595L770.777 475.415C772.052 477.071 773.274 477.008 774.924 475.951M717.511 475.948C739.317 461.943 751.431 445.643 753.854 427.046C757.63 398.096 731.742 383.927 718.623 396.657C705.505 409.387 713.368 425.549 722.869 429.968C732.37 434.387 738.176 432.846 737.163 438.751C736.149 444.655 722.634 461.02 710.761 468.642C710.342 469 710.074 469.505 710.013 470.054C709.953 470.602 710.103 471.154 710.434 471.595L713.368 475.415C714.642 477.071 715.864 477.008 717.511 475.951" fill="#9D93EB"/>
</svg>
