<svg width="26" height="30" viewBox="0 0 26 30" fill="none" xmlns="http://www.w3.org/2000/svg">
<path d="M20.2833 5.215C19.2013 3.97925 18.6048 2.39255 18.605 0.75H13.7125V20.3833C13.6756 21.4461 13.2272 22.4529 12.4622 23.1914C11.6971 23.9299 10.675 24.3423 9.61167 24.3417C7.36334 24.3417 5.495 22.505 5.495 20.225C5.495 17.5017 8.12334 15.4592 10.8308 16.2983V11.295C5.36834 10.5667 0.58667 14.81 0.58667 20.225C0.58667 25.4975 4.95667 29.25 9.59584 29.25C14.5675 29.25 18.605 25.2125 18.605 20.225V10.2658C20.5889 11.6906 22.9708 12.455 25.4133 12.4508V7.55833C25.4133 7.55833 22.4367 7.70083 20.2833 5.215Z" fill="white"/>
</svg>
